<svg xmlns="http://www.w3.org/2000/svg" width="58" height="58" fill="none"><rect width="58" height="58" fill="#3077C6" rx="4"/><path fill="#fff" d="M2.586 26.61a1.586 1.586 0 0 1-.15-.36 1.644 1.644 0 0 1-.069-.48c0-.311.065-.535.196-.67a.723.723 0 0 1 .529-.204h5.014c.053.088.103.207.15.36.045.151.068.31.068.479 0 .311-.069.535-.207.67a.684.684 0 0 1-.517.204H6.323v5.537a3.063 3.063 0 0 1-.402.072 3.918 3.918 0 0 1-.53.035c-.176 0-.333-.016-.47-.047a.753.753 0 0 1-.334-.144.647.647 0 0 1-.207-.3 1.518 1.518 0 0 1-.07-.503v-4.65H2.587ZM10.643 32.182a2.57 2.57 0 0 1-.368.072 3.43 3.43 0 0 1-.506.035c-.169 0-.322-.011-.46-.035a.753.753 0 0 1-.334-.144.741.741 0 0 1-.218-.288 1.473 1.473 0 0 1-.07-.491v-3.595c0-.184.032-.34.093-.468.069-.135.165-.255.287-.359.123-.104.273-.196.449-.276a4.304 4.304 0 0 1 1.23-.371c.223-.04.445-.06.667-.06.368 0 .66.076.874.228.215.143.322.383.322.719 0 .111-.015.223-.046.335-.03.104-.069.2-.115.288a5.27 5.27 0 0 0-1.449.204 1.721 1.721 0 0 0-.356.12v4.086ZM13.37 24.752c0-.304.096-.56.287-.767.2-.208.46-.311.782-.311s.58.103.77.311c.2.208.3.463.3.767s-.1.56-.3.767c-.19.208-.448.312-.77.312s-.582-.104-.782-.312a1.088 1.088 0 0 1-.287-.767Zm2.047 7.43c-.085.016-.211.035-.38.06a2.696 2.696 0 0 1-.954.012.754.754 0 0 1-.334-.144.742.742 0 0 1-.218-.288 1.473 1.473 0 0 1-.07-.491v-4.877c.085-.016.208-.036.369-.06a2.717 2.717 0 0 1 .954-.012.762.762 0 0 1 .345.143.647.647 0 0 1 .207.3c.054.12.08.28.08.48v4.877ZM19.226 26.19c.46 0 .885.064 1.276.192.399.12.74.307 1.024.563.283.256.506.58.667.97.16.384.241.843.241 1.379 0 .51-.069.958-.207 1.342a2.7 2.7 0 0 1-.586.97c-.253.256-.56.448-.92.576a3.458 3.458 0 0 1-1.185.191c-.33 0-.636-.052-.92-.155v1.989c-.076.024-.199.048-.368.072a2.78 2.78 0 0 1-.517.048c-.169 0-.322-.012-.46-.036a.752.752 0 0 1-.334-.144.647.647 0 0 1-.207-.3 1.368 1.368 0 0 1-.069-.48v-5.751c0-.216.042-.392.127-.527.092-.136.215-.26.368-.372.238-.16.533-.287.885-.383a4.515 4.515 0 0 1 1.185-.144Zm.023 4.578c.79 0 1.184-.492 1.184-1.474 0-.512-.1-.891-.299-1.139-.191-.247-.471-.371-.84-.371-.145 0-.275.02-.39.06a1.318 1.318 0 0 0-.3.12V30.6c.093.048.193.088.3.12.107.032.222.048.345.048ZM29.77 32.146a3.062 3.062 0 0 1-.402.072 3.917 3.917 0 0 1-.529.035c-.176 0-.333-.016-.471-.047a.753.753 0 0 1-.334-.144.647.647 0 0 1-.207-.3 1.518 1.518 0 0 1-.069-.503v-1.87H25.55v2.757a3.062 3.062 0 0 1-.402.072 3.917 3.917 0 0 1-.53.035c-.176 0-.333-.016-.47-.047a.754.754 0 0 1-.334-.144.647.647 0 0 1-.207-.3 1.52 1.52 0 0 1-.07-.503v-6.327c.085-.016.22-.036.403-.06a3.1 3.1 0 0 1 .53-.048c.176 0 .329.016.46.048a.762.762 0 0 1 .344.144.647.647 0 0 1 .207.3c.046.127.07.295.07.503v1.917h2.207v-2.804a7.86 7.86 0 0 1 .403-.06c.184-.032.36-.048.529-.048.176 0 .33.016.46.048a.762.762 0 0 1 .345.144.647.647 0 0 1 .207.3c.046.127.069.295.069.503v6.327ZM36.899 29.282c0 .495-.073.938-.218 1.33a2.665 2.665 0 0 1-.621.97c-.261.264-.575.464-.943.6a3.533 3.533 0 0 1-1.23.203c-.453 0-.863-.072-1.231-.215a2.798 2.798 0 0 1-.955-.612c-.26-.271-.464-.599-.61-.982a3.62 3.62 0 0 1-.218-1.294c0-.472.073-.9.219-1.282.145-.384.349-.708.61-.971.267-.272.586-.48.954-.623a3.356 3.356 0 0 1 1.23-.216c.452 0 .863.076 1.23.228a2.6 2.6 0 0 1 .944.623c.268.263.475.587.62.97.146.384.219.807.219 1.27Zm-4.025 0c0 .487.088.862.265 1.126a.884.884 0 0 0 .759.383.82.82 0 0 0 .736-.395c.176-.264.264-.635.264-1.114 0-.48-.088-.847-.264-1.103a.848.848 0 0 0-.748-.395.848.848 0 0 0-.747.395c-.177.256-.265.623-.265 1.103ZM37.853 26.454c.076-.024.195-.048.356-.072.169-.024.341-.036.518-.036.168 0 .318.012.448.036a.762.762 0 0 1 .345.143.647.647 0 0 1 .207.3c.054.12.08.28.08.48v2.576c0 .327.077.563.23.707.154.136.376.203.668.203a1.534 1.534 0 0 0 .69-.143v-4.194c.076-.024.195-.048.356-.072.169-.024.341-.036.518-.036.168 0 .318.012.448.036a.762.762 0 0 1 .345.143.647.647 0 0 1 .207.3c.054.12.08.28.08.48v3.642c0 .4-.16.7-.482.9-.269.175-.59.307-.966.395-.368.095-.77.143-1.208.143-.414 0-.797-.048-1.15-.143a2.517 2.517 0 0 1-.897-.444 1.98 1.98 0 0 1-.586-.767c-.138-.32-.207-.703-.207-1.15v-3.427ZM49.26 30.456c0 .607-.218 1.082-.655 1.426-.437.343-1.08.515-1.931.515-.322 0-.621-.024-.898-.072a2.717 2.717 0 0 1-.713-.215 1.407 1.407 0 0 1-.46-.384.91.91 0 0 1-.16-.539c0-.192.038-.352.114-.48.077-.135.17-.247.276-.335.223.128.476.244.76.348.29.096.624.143 1 .143.238 0 .418-.035.54-.107.13-.072.196-.168.196-.288 0-.112-.046-.2-.138-.264-.092-.064-.245-.116-.46-.155l-.345-.072c-.667-.136-1.165-.348-1.495-.635-.322-.296-.483-.715-.483-1.259 0-.295.061-.563.184-.802.123-.24.295-.44.517-.6.223-.16.487-.283.794-.371.314-.088.66-.132 1.035-.132.284 0 .548.024.793.072.253.04.472.104.656.192.184.087.33.203.437.347.107.136.16.3.16.491a1.046 1.046 0 0 1-.344.803 1.22 1.22 0 0 0-.276-.12 2.685 2.685 0 0 0-.402-.12 4.071 4.071 0 0 0-.449-.095 2.49 2.49 0 0 0-.402-.036c-.253 0-.449.032-.587.096-.138.056-.207.148-.207.275 0 .088.038.16.115.216.077.056.222.108.437.156l.356.084c.736.175 1.258.42 1.564.73.315.304.472.7.472 1.187ZM53.218 32.385c-.453 0-.874-.064-1.265-.191a2.969 2.969 0 0 1-1.012-.6 2.847 2.847 0 0 1-.679-.994c-.16-.4-.241-.867-.241-1.402 0-.527.08-.979.241-1.354.169-.384.387-.695.656-.935a2.46 2.46 0 0 1 .92-.54c.345-.12.697-.179 1.058-.179.406 0 .774.064 1.104.192.337.127.624.303.862.527.245.224.433.491.564.803.138.311.207.65.207 1.018 0 .272-.073.48-.219.624-.146.143-.349.235-.61.275l-2.84.444c.084.263.257.463.518.599.26.127.56.191.897.191.314 0 .61-.04.885-.12a2.9 2.9 0 0 0 .69-.299c.123.08.226.192.31.336a.886.886 0 0 1 .127.455c0 .36-.16.627-.483.803a2.487 2.487 0 0 1-.828.275 5.604 5.604 0 0 1-.862.072Zm-.322-4.71c-.184 0-.345.033-.483.097a.941.941 0 0 0-.322.251 1.03 1.03 0 0 0-.196.336c-.038.12-.061.244-.069.371l1.967-.335c-.023-.16-.108-.32-.253-.48-.146-.16-.36-.24-.644-.24Z"/></svg>